<?xml version="1.0" encoding="UTF-8"?>
<svg id="Capa_2" xmlns="http://www.w3.org/2000/svg" viewBox="0 0 62.9 46.99">
  <defs>
    <style>
      .cls-1 {
        fill: #1d1d1b;
      }
    </style>
  </defs>
  <g id="Capa_1-2" data-name="Capa_1">
    <path class="cls-1" d="M62.9,46.99l-25.73-1.93c-.94.51-1.86.89-2.76,1.16-.9.26-1.77.4-2.61.4s-1.78-.13-2.77-.4c-.99-.26-2.04-.65-3.15-1.16l-25.88,1.93V6.27l5.45-.32L7.58,1.82c2.3-.6,4.49-1.06,6.54-1.36,2.06-.3,3.99-.45,5.78-.45,3.12,0,5.57.41,7.34,1.22,1.77.81,3.16,2.17,4.17,4.09.92-1.88,2.31-3.23,4.16-4.06,1.86-.83,4.41-1.25,7.65-1.25,1.66,0,3.48.15,5.47.45,1.98.3,4.14.76,6.46,1.36l1.99,3.81,5.74.32v41.04ZM61.46,45.44V7.24l-3.63-.21,1.44,2.37v33.63l-23.48-1.46c-1.13.96-2.58,1.44-4.34,1.44s-3.17-.48-4.28-1.44l-23.57,1.46V9.4l1.06-2.08-3.23.18v37.94l24.91-1.85c.98.53,1.92.92,2.81,1.19s1.77.4,2.61.4c.78,0,1.58-.13,2.4-.4s1.67-.66,2.55-1.19l24.74,1.85ZM5.04,9.7v30.56l2.9-5.6V4.42l-2.9,5.27ZM6.16,41.57l21.42-1.7c.63.8,1.67,1.37,3.14,1.7-.27-2.46-1.23-4.22-2.86-5.29-1.63-1.06-4.2-1.6-7.69-1.6-1.62,0-3.37.11-5.23.34-1.87.22-3.85.56-5.96,1.01l-2.81,5.54ZM9.38,34.45c2.27-.41,4.28-.71,6.03-.91,1.75-.19,3.24-.29,4.47-.29,5.03,0,8.65,1.21,10.85,3.63V9.61c0-2.73-.85-4.78-2.55-6.14-1.7-1.36-4.26-2.04-7.69-2.04-1.76,0-3.56.12-5.41.37-1.85.24-3.75.61-5.71,1.1v31.55ZM53.5,2.84c-2.15-.47-4.13-.82-5.95-1.05s-3.47-.35-4.95-.35c-3.61,0-6.35.74-8.2,2.23-1.48,1.17-2.23,3.17-2.23,6.01v27.33c1.35-1.42,2.78-2.41,4.31-2.94,1.52-.54,3.62-.81,6.3-.81,1.78,0,3.56.1,5.35.31s3.58.52,5.38.95V2.84ZM56.95,41.57l-2.81-5.45c-2.27-.49-4.37-.85-6.31-1.08-1.94-.23-3.72-.35-5.32-.35-6.9,0-10.34,2.3-10.34,6.88,1.44-.23,2.54-.81,3.3-1.73l21.49,1.73ZM54.93,4.54v30.12l2.9,5.45V10.02l-2.9-5.48Z"/>
  </g>
</svg>