<?xml version="1.0" encoding="UTF-8"?>
<svg id="Capa_2" xmlns="http://www.w3.org/2000/svg" viewBox="0 0 32.73 32.7">
  <defs>
    <style>
      .cls-1 {
        fill: #1d1d1b;
      }
    </style>
  </defs>
  <g id="Capa_1-2" data-name="Capa_1">
    <path class="cls-1" d="M2.05,0c4.32,3.93,9.09,5.89,14.33,5.89s9.92-1.96,14.3-5.89l2.05,2.05c-3.95,4.43-5.92,9.19-5.92,14.27s1.97,10,5.92,14.36l-2.05,2.02c-4.34-3.93-9.11-5.89-14.33-5.89s-9.96,1.96-14.3,5.89l-2.05-2.02c3.93-4.34,5.89-9.11,5.89-14.33S3.93,6.36,0,2.02L2.05,0ZM26.07,26.04c-1.44-3.11-2.16-6.34-2.16-9.7s.72-6.6,2.16-9.73c-3.08,1.45-6.33,2.17-9.72,2.17s-6.61-.72-9.69-2.17c1.43,3.05,2.14,6.28,2.14,9.7s-.71,6.66-2.14,9.73c3.04-1.42,6.28-2.14,9.69-2.14s6.68.71,9.72,2.14Z"/>
  </g>
</svg>