<?xml version="1.0" encoding="UTF-8"?>
<svg id="Capa_2" xmlns="http://www.w3.org/2000/svg" viewBox="0 0 42.88 22.62">
  <defs>
    <style>
      .cls-1 {
        fill: #433434;
      }
    </style>
  </defs>
  <path class="cls-1" d="M12.12,10.47v1.75c.42.04,1.17.06,2.23.06,1.99,0,3.77-.06,5.34-.19l.76-.06v9.51c-2.06.72-4.98,1.08-8.76,1.08s-6.68-.96-8.69-2.9c-2-1.93-3.01-4.8-3.01-8.61S.99,4.51,2.96,2.7C4.93.9,7.87,0,11.77,0c1.63,0,3.18.1,4.63.29s2.49.38,3.1.57l.95.29v9.8c-1.85-.32-4.62-.48-8.33-.48Z"/>
  <path class="cls-1" d="M33.09,0c1.74,0,3.37.11,4.88.33,1.52.22,2.6.45,3.26.68l.95.35v9.1c-1.72-.78-4.07-1.18-7.06-1.18v.83c2.76.21,4.74.76,5.95,1.65,1.21.89,1.81,2.24,1.81,4.04,0,2.16-.88,3.84-2.64,5.03-1.76,1.19-4.48,1.78-8.14,1.78-2.1,0-3.96-.12-5.57-.37-1.61-.24-2.69-.48-3.25-.72l-.86-.38v-7.92c.19.09.48.2.86.35.38.15,1.24.34,2.56.57,1.33.23,2.75.35,4.28.35v-.76c-2.59-.19-4.54-.74-5.85-1.65-1.32-.91-1.97-2.5-1.97-4.77s.9-4.06,2.7-5.36c1.8-1.3,4.5-1.96,8.08-1.96Z"/>
</svg>