<?xml version="1.0" encoding="UTF-8"?>
<svg id="Capa_2" xmlns="http://www.w3.org/2000/svg" viewBox="0 0 76.29 30.09">
  <defs>
    <style>
      .cls-1 {
        fill: #1d1d1b;
      }
    </style>
  </defs>
  <g id="Capa_1-2" data-name="Capa_1">
    <path class="cls-1" d="M46.52,18.96l11.89-12.4C62.56,2.22,66.1.06,69.05.06c2.13,0,3.87.75,5.21,2.24s2.02,3.42,2.02,5.79c0,2.03-.44,3.05-1.32,3.05-.8,0-1.2-.41-1.2-1.23,0-.2.03-.39.09-.59l.23-.71c.29-.86.44-1.53.44-2,0-1.41-.53-2.62-1.6-3.61s-2.35-1.5-3.85-1.5c-2.58,0-5.87,2.13-9.87,6.38l-12.69,13.4c-.47,2.56-1.68,4.67-3.65,6.33s-4.21,2.49-6.75,2.49c-2.97,0-5.35-.93-7.13-2.78s-2.9-4.54-3.33-8.07c.35-.45.53-.88.53-1.3,0-.59-.22-1.03-.67-1.33s-1.12-.44-2.02-.44c-1.89,0-2.84.61-2.84,1.83,0,.41.2.83.59,1.24-.61,3.72-1.77,6.46-3.5,8.21s-4.11,2.63-7.13,2.63-5.48-1.08-7.53-3.23-3.08-4.79-3.08-7.9L13.65,5.03C16.93,1.68,19.95,0,22.71,0c2.05,0,3.75.75,5.08,2.26,1.34,1.5,2.01,3.42,2.01,5.74,0,2.03-.44,3.05-1.32,3.05-.8,0-1.2-.4-1.2-1.2,0-.19.03-.39.09-.59l.23-.73c.29-.86.44-1.52.44-1.99,0-1.39-.51-2.56-1.52-3.53s-2.25-1.45-3.69-1.45c-2.58,0-5.42,1.6-8.53,4.79L2.08,18.96h14.62c1.74,0,2.61-.33,2.61-.98v-.56c0-1.78,1.45-2.67,4.34-2.67,1.07,0,1.99.26,2.75.77.76.54,1.14,1.17,1.14,1.9v.39c0,.77.89,1.16,2.67,1.16h16.32ZM14.97,20.39H6.09c-1.82,0-2.95.07-3.41.21-.46.14-.69.49-.69,1.05,0,1.58.95,3.11,2.84,4.58s3.87,2.21,5.92,2.21,3.84-.63,5.49-1.9,2.48-2.7,2.48-4.28c0-.78-.23-1.29-.69-1.52s-1.48-.35-3.06-.35ZM41.25,20.39h-8.79c-1.86,0-3.05.12-3.57.35s-.79.77-.79,1.61c0,1.52.83,2.92,2.5,4.19s3.51,1.9,5.52,1.9,3.94-.74,5.84-2.23c1.9-1.48,2.86-3.01,2.86-4.57,0-.84-1.19-1.26-3.57-1.26Z"/>
  </g>
</svg>