<?xml version="1.0" encoding="UTF-8"?>
<svg id="Capa_2" xmlns="http://www.w3.org/2000/svg" viewBox="0 0 22.82 46.35">
  <defs>
    <style>
      .cls-1 {
        fill: #1d1d1b;
      }
    </style>
  </defs>
  <g id="Capa_1-2" data-name="Capa_1">
    <path class="cls-1" d="M17.52,1.41v4.19c2.46,2.25,4.17,4.43,5.16,6.56.1.8.15,1.39.15,1.76,0,1.07-.2,2.23-.59,3.46l.47,1.08.06,1.02c0,2.91-1.05,4.37-3.16,4.37-.1,0-.25,0-.47-.02-.16,1.1-.5,1.92-1.04,2.47-.54.55-1.27.82-2.21.82-.41,0-.89-.11-1.44-.32-.23.86-.6,1.5-1.11,1.93-.51.43-1.14.64-1.9.64-.56,0-1.06-.12-1.48-.37-.42-.24-.77-.61-1.07-1.1l-.25,1.05-.12,10.55c0,2.27-.26,3.97-.79,5.11s-1.31,1.71-2.34,1.71c-1.21,0-2.06-.54-2.55-1.64-.49-1.09-.73-3.01-.73-5.75l-.26-11.95-1.11-1.2-.73-8.09c1.07-3.71,2.33-7.01,3.78-9.9V1.55c2.2-1.04,4.56-1.55,7.07-1.55,2.22,0,4.44.47,6.67,1.41ZM16,2.4c-1.81-.61-3.58-.91-5.32-.91-1.83,0-3.65.34-5.46,1.03v5.33c-1.99,4.96-3.23,8.28-3.72,9.96l.64,7.44,4.22,4.54c.76-.86,1.14-1.83,1.14-2.92,0-1.67-.87-3.34-2.61-4.99,1.02-1.78,1.52-3.62,1.52-5.54l-.03-.5,1.44.06.06.67c0,1.76-.42,3.43-1.26,5.01.9,1.16,1.53,2.23,1.9,3.21l.03-2.66c-.29-.53-.51-1.04-.64-1.55-.14-.51-.21-1.01-.21-1.49,0-2.25,1.3-4.03,3.9-5.36l.88,2.05c.41-1.29,1.52-2.47,3.34-3.54l.82,1.82c.91-1.09,1.94-1.88,3.11-2.37l1.55,3.66c.14-1,.21-1.64.21-1.93,0-.2-.04-.54-.12-1.03-1.34-2.27-3.13-4.28-5.39-6.04v-3.96ZM3.28,28.48l.26,10.72c0,3.81.62,5.71,1.88,5.71.55,0,.96-.59,1.25-1.77.28-1.18.42-2.95.42-5.32l.03-6.65c-.18.2-.42.43-.73.7l-3.11-3.4ZM11.02,15.76c-1.25.74-1.88,1.86-1.88,3.34,0,.43.08.86.23,1.3.15.44.38.88.68,1.33v3.76c0,.8.11,1.39.34,1.79.22.4.56.6,1.01.6.62,0,1.1-.29,1.42-.88s.48-1.45.48-2.6l-.03-3.09-2.26-5.57ZM15.22,14.38c-1.03.68-1.65,1.83-1.86,3.43l1.35,3.05-.03,4.3c.47.3.88.44,1.23.44.6,0,1.06-.24,1.38-.72.31-.48.47-1.2.47-2.16l-.07-2.65-2.46-5.68ZM19.04,13.74c-.58.43-1.13,1.06-1.67,1.9l1.76,3.93v2.84c1.46,0,2.2-.91,2.2-2.72l-.03-1.14-2.26-4.8Z"/>
  </g>
</svg>