<?xml version="1.0" encoding="UTF-8"?>
<svg id="Capa_2" xmlns="http://www.w3.org/2000/svg" viewBox="0 0 54.23 44.44">
  <defs>
    <style>
      .cls-1 {
        fill: #1d1d1b;
      }
    </style>
  </defs>
  <g id="Capa_1-2" data-name="Capa_1">
    <path class="cls-1" d="M10.08,16.26h36.91c3.5,0,5.58.33,6.24,1s1,2.73,1,6.21v13.74c0,3.42-.36,5.48-1.07,6.18-.71.7-2.77,1.05-6.17,1.05H7.24c-3.28,0-5.31-.39-6.08-1.16-.77-.77-1.16-2.8-1.16-6.08v-13.74c0-3.24.3-5.26.9-6.06s2.13-1.2,4.59-1.2l1.69.06v-.56c0-2.97.9-5.46,2.71-7.49,1.81-2.02,4.05-3.03,6.73-3.03,1.27,0,2.68.21,4.22.64l1.29.38c1.7.49,3.17.73,4.4.73,3.56,0,5.98-1.56,7.27-4.69.61-1.5,1.22-2.26,1.85-2.26.9,0,1.35.42,1.35,1.26,0,1.48-.8,3.12-2.4,4.92-2.15,2.44-4.79,3.66-7.94,3.66-1.07,0-2.76-.26-5.07-.79l-1.55-.35c-1.7-.41-2.91-.62-3.63-.62-1.74,0-3.23.74-4.47,2.23-1.24,1.48-1.86,3.25-1.86,5.3v.64ZM47.02,17.7H7.24c-2.85,0-4.53.25-5.04.76-.51.51-.76,2.18-.76,5.02v13.73c0,2.86.25,4.54.76,5.04.51.51,2.19.76,5.04.76h39.78c2.85,0,4.53-.25,5.03-.76.5-.51.75-2.19.75-5.04v-13.73c0-2.83-.25-4.51-.76-5.02-.51-.51-2.18-.76-5.01-.76ZM7.18,21.94h3.6v3.6h3.63v-3.6h3.66v3.6h3.57v-3.6h3.66v3.6h3.6v-3.6h3.6v3.6h3.6v-3.6h3.6v3.6h3.63v-3.6h3.6v3.66h-3.57v3.63h3.57v3.6h-3.6v-3.54h-3.63v3.54h-3.6v-3.54h-3.6v3.54h-3.6v-3.54h-3.6v3.54h-3.66v-3.54h-3.57v3.54h-3.66v-3.54h-3.63v3.54h-3.6v-3.6h3.57v-3.63h-3.57v-3.66ZM14.41,38.67v-3.6h25.31v3.6H14.41ZM14.44,29.24h3.57v-3.63h-3.57v3.63ZM21.68,29.24h3.6v-3.63h-3.6v3.63ZM28.95,29.24h3.54v-3.63h-3.54v3.63ZM36.15,29.24h3.54v-3.63h-3.54v3.63Z"/>
  </g>
</svg>