<?xml version="1.0" encoding="UTF-8"?>
<svg id="Capa_2" xmlns="http://www.w3.org/2000/svg" viewBox="0 0 41.42 43.02">
  <path d="M41.42,43.02h-3.99c-1.12-1.33-3.34-1.99-6.65-1.99-2.86,0-5.34.66-7.43,1.99h-5.25c-2.09-1.33-4.57-1.99-7.46-1.99-3.31,0-5.53.66-6.65,1.99H0v-4.87c1.52-1.33,2.28-3.62,2.28-6.89,0-1.95-.12-3.35-.36-4.21s-.88-2.17-1.92-3.95v-3.21c1.52-2.49,2.28-5.2,2.28-8.15,0-3.26-.76-5.56-2.28-6.89V0h3.99c1.12,1.33,3.34,1.99,6.65,1.99,2.88,0,5.37-.66,7.46-1.99h5.25c2.09,1.33,4.56,1.99,7.43,1.99,3.31,0,5.53-.66,6.65-1.99h3.99v4.87c-1.52,1.33-2.28,3.62-2.28,6.89,0,1.95.12,3.35.36,4.21s.88,2.17,1.92,3.95v3.24c-1.04,1.79-1.67,3.11-1.92,3.95s-.36,2.23-.36,4.18c0,3.26.76,5.56,2.28,6.89v4.87ZM34.69,36.5V5.98H7.22v30.52h27.47ZM14.13,17.86h-6.21v-5.64c.29-.41.71-.62,1.24-.62,1.14,0,1.71.57,1.71,1.71,0,.17-.02.33-.05.47.5-.64,1.02-.96,1.55-.96,1.04,0,1.62,1.68,1.76,5.05ZM33.63,34.33c0,.43-.02.84-.05,1.22H8.65c.64-1.26,1.27-2.53,1.89-3.81.9-1.69,1.66-2.81,2.28-3.37-.35-1.21-.52-2.5-.52-3.88,0-2.47.98-4.81,2.95-7.04-.24-1.21-.36-2.57-.36-4.09s.46-2.78,1.38-3.84,2.12-1.59,3.59-1.59c2.47,0,4.39,2.67,5.77,8.02.41,1.62,1.35,2.47,2.82,2.54.69.86,1.58,2.2,2.67,4.01.29.71.79,2.67,1.48,5.9s1.04,5.2,1.04,5.93ZM24.44,21.07c-2.09-2.16-3.13-3.91-3.13-5.25,0-.31.07-.78.22-1.41s.22-1.11.22-1.44c0-.66-.2-1.32-.6-1.99-.47-.78-1-1.16-1.6-1.16-.64,0-1.29.07-1.94.21-.66,1.23-.98,2.33-.98,3.31,0,.48.16,1.06.47,1.73.36.76.74,1.19,1.14,1.29.09.16.17.31.26.45s.26.2.52.17l-.13,1.42h-.13c-.81-.03-1.59.44-2.33,1.42-.57.76-1.01,1.62-1.32,2.59l6.45,1.32c.67-1.31,1.64-2.2,2.9-2.67ZM18.38,12.71c-.1.02-.6.12-1.48.31v-.57c.19-.12.41-.18.65-.18.21,0,.48.15.83.44ZM20.14,33.08l-1.19-1.11-1.94.6v1.42l1.11.88,2.02-1.79ZM17.5,12.79l-.16-.36-.26.41.41-.05ZM25.01,32.02c0-.76-.79-1.52-2.38-2.28-1.14-.45-2.28-.91-3.42-1.37-1.28.31-1.92.72-1.92,1.22,0,.41.27.92.8,1.53h1.04c.09.55.46,1.03,1.11,1.42.59.36,1.18.57,1.79.62l-.44-.57.47-.18.57.75.67-.18-.65-.83.41-.13.75.8.72-.23-1.11-1.04.23-.18c.35.26.79.53,1.32.8l.03-.16ZM19.6,14.65c-.12.19-.33.28-.62.28-.38,0-.6-.15-.65-.44.1.07.26.15.47.23.12-.07.27-.16.44-.26l.36.18ZM20.35,14.91c-.17.45-.54.71-1.11.78l-.08.03c-.1,0-.36-.04-.78-.13.59-.07.94-.13,1.06-.17s.42-.21.91-.5ZM21.1,11.86c-.33.47-.82.76-1.48.88-.16.17-.27.45-.34.83-.07-.66-.1-1.01-.1-1.06,0-.33.16-.49.47-.49.1,0,.27.02.5.06s.41.06.53.06l.21-.05.21-.23ZM19.85,12.53c-.16-.07-.21-.18-.16-.34l-.28.41.44-.08ZM34.07,17.86h-6.81c-.07-.5-.1-1.05-.1-1.66,0-2.16.55-3.24,1.66-3.24,1.43,0,2.2.53,2.3,1.6-.03-1.45.95-2.5,2.95-3.16v6.45Z"/>
</svg>