<?xml version="1.0" encoding="UTF-8"?>
<svg id="Capa_2" xmlns="http://www.w3.org/2000/svg" viewBox="0 0 49.66 48.43">
  <defs>
    <style>
      .cls-1 {
        fill: #1d1d1b;
      }
    </style>
  </defs>
  <g id="Capa_1-2" data-name="Capa_1">
    <path class="cls-1" d="M38.99,10.34c0-2.66-.5-4.56-1.51-5.71-1.01-1.15-2.66-1.73-4.97-1.73-4.59,0-8.1,3.29-10.52,9.87l-.47,1.32c-2.85,7.71-7.01,11.57-12.48,11.57-2.19,0-4.24-.84-6.17-2.53-1.92-1.69-2.89-3.49-2.89-5.41,0-.98.46-1.46,1.38-1.46.6,0,1.22.77,1.85,2.31,1.17,2.79,3.12,4.19,5.86,4.19,2.09,0,3.79-.67,5.11-2.01s2.81-3.9,4.47-7.69l1.08-2.4C22.93,3.55,27.23,0,32.64,0c6.15,0,9.23,3.45,9.23,10.34h2.99c2.05,0,3.36.28,3.94.83.58.56.86,1.82.86,3.79v22.29c0,3.09-1.09,5.72-3.27,7.9-2.18,2.18-4.81,3.27-7.9,3.27s-5.69-1.09-7.87-3.27c-2.18-2.18-3.27-4.81-3.27-7.9V14.97c0-1.89.31-3.14.92-3.74s1.91-.89,3.88-.89h6.83ZM39.73,11.78h-7.64c-1.41,0-2.31.19-2.7.56-.39.37-.59,1.22-.59,2.53v4.65h10.93v-7.73ZM28.8,20.95v16.32c0,2.68.95,4.97,2.84,6.87,1.89,1.9,4.18,2.86,6.86,2.86s4.99-.95,6.88-2.84c1.89-1.89,2.84-4.19,2.84-6.88v-16.32h-19.42ZM41.16,11.78v7.73h7.06v-4.65c0-1.37-.19-2.23-.56-2.57-.37-.34-1.28-.51-2.72-.51h-3.78Z"/>
  </g>
</svg>