<?xml version="1.0" encoding="UTF-8"?>
<svg id="Capa_2" xmlns="http://www.w3.org/2000/svg" viewBox="0 0 26.02 45.53">
  <defs>
    <style>
      .cls-1 {
        fill: #1d1d1b;
      }
    </style>
  </defs>
  <g id="Capa_1-2" data-name="Capa_1">
    <path class="cls-1" d="M0,40.08v-2.23c0-1.89.24-3.39.72-4.5.48-1.1,1.47-2.46,2.97-4.06l3.87-4.07c1.23-1.31,1.85-2.16,1.85-2.55,0-.43-.75-1.41-2.26-2.93l-3.87-3.98c-1.31-1.33-2.18-2.56-2.62-3.69-.44-1.13-.66-2.7-.66-4.69v-2.4c0-1.66,1.08-2.9,3.25-3.74C5.42.42,8.67,0,13.01,0c8.67,0,13.01,1.66,13.01,4.98v2.4c0,1.99-.22,3.56-.66,4.69-.44,1.13-1.31,2.36-2.62,3.69l-3.87,3.98c-1.48,1.52-2.23,2.5-2.23,2.93,0,.39.61,1.24,1.82,2.55l3.87,4.07c1.5,1.6,2.5,2.95,2.97,4.06.48,1.1.72,2.6.72,4.5v2.23c0,1.8-1.1,3.15-3.31,4.07s-5.44,1.38-9.7,1.38-7.49-.46-9.7-1.38-3.31-2.27-3.31-4.07ZM1.44,5.74v2.81c0,1.35.2,2.39.59,3.12s1.4,1.97,3.02,3.71l3.31,3.52c1.66,1.82,2.49,3.1,2.49,3.84s-.76,1.96-2.29,3.6l-3.81,4.07c-1.48,1.58-2.41,2.76-2.77,3.54-.36.78-.54,1.96-.54,3.54v2.11c0,1.27.46,2.15,1.38,2.64,2.25,1.23,5.64,1.85,10.2,1.85s7.97-.62,10.2-1.85c.92-.49,1.38-1.37,1.38-2.64v-2.11c0-1.58-.18-2.76-.54-3.54-.36-.78-1.28-1.96-2.76-3.54l-3.8-4.07c-1.52-1.64-2.28-2.88-2.28-3.72,0-.66.84-1.9,2.51-3.72l3.27-3.52c1.62-1.74,2.62-2.97,3.01-3.71.39-.73.58-1.77.58-3.12v-2.81c-2.68,1.7-6.53,2.55-11.57,2.55-2.52,0-4.74-.21-6.67-.64-1.92-.43-3.56-1.06-4.91-1.9ZM13.01,6.86c2.7,0,5.19-.3,7.47-.91,2.29-.6,3.41-1.26,3.37-1.96-.04-.72-1.09-1.33-3.15-1.82-2.06-.49-4.62-.73-7.69-.73s-5.66.25-7.73.75-3.11,1.12-3.11,1.86c0,.68,1.15,1.32,3.44,1.92,2.29.6,4.76.89,7.4.89ZM2.9,40.17c.31-1.17,1.49-2.29,3.52-3.34l2.58-1.32c1.62-.84,2.6-1.41,2.92-1.7.32-.29.69-.95,1.1-1.96.43,1.02.8,1.67,1.11,1.96s1.28.86,2.9,1.7l2.57,1.32c2.03,1.05,3.2,2.17,3.51,3.34-2.48,1.25-5.85,1.88-10.11,1.88s-7.63-.62-10.11-1.88ZM4.54,11.54c2.89,1.84,5.71,2.75,8.47,2.75s5.59-.92,8.5-2.75c-.49.78-1.56,2.07-3.22,3.87l-2.43,2.67c-1.09,1.19-1.75,2.02-1.99,2.48-.23.46-.43,1.33-.58,2.62-.04.39-.13.98-.26,1.76-.14-.78-.23-1.37-.26-1.76-.16-1.29-.35-2.16-.59-2.62-.23-.46-.9-1.28-2-2.48l-2.44-2.67c-1.66-1.8-2.73-3.09-3.2-3.87Z"/>
  </g>
</svg>