<?xml version="1.0" encoding="UTF-8"?>
<svg id="Capa_2" xmlns="http://www.w3.org/2000/svg" viewBox="0 0 42.71 42.04">
  <defs>
    <style>
      .cls-1 {
        fill: #1d1d1b;
      }
    </style>
  </defs>
  <g id="Capa_1-2" data-name="Capa_1">
    <path class="cls-1" d="M21.36,35.83l-7.41,6.21-1.7-9.52H2.58l4.83-8.38L0,17.9l9.08-3.31-1.64-9.52,9.08,3.31L21.36,0l4.86,8.38,9.08-3.31-1.67,9.52,9.08,3.31-7.41,6.24,4.83,8.38h-9.67l-1.7,9.52-7.41-6.21ZM21.36,34.34c3.5,0,6.48-1.23,8.95-3.71,2.47-2.47,3.71-5.45,3.71-8.95s-1.24-6.48-3.71-8.95c-2.47-2.47-5.45-3.71-8.95-3.71s-6.48,1.24-8.95,3.71c-2.47,2.47-3.71,5.45-3.71,8.95s1.24,6.48,3.72,8.95c2.48,2.47,5.46,3.71,8.94,3.71Z"/>
  </g>
</svg>