<?xml version="1.0" encoding="UTF-8"?>
<svg id="Capa_2" xmlns="http://www.w3.org/2000/svg" viewBox="0 0 43.36 43.36">
  <defs>
    <style>
      .cls-1 {
        fill: #1d1d1b;
      }
    </style>
  </defs>
  <g id="Capa_1-2" data-name="Capa_1">
    <path class="cls-1" d="M26.16,10.84l10.84-4.48-4.51,10.84,10.87,4.48-10.87,4.48,4.51,10.84-10.84-4.48-4.48,10.84-4.48-10.84-10.84,4.48,4.48-10.84L0,21.68l10.84-4.48L6.36,6.36l10.81,4.48L21.68,0l4.48,10.84ZM12.71,25.4l8.96-3.72H3.75l8.96,3.72ZM12.71,17.96l8.96,3.72-12.66-12.66,3.69,8.94ZM17.96,30.64l3.72-8.96-12.66,12.66,8.94-3.69ZM17.96,12.71l3.72,8.96V3.78l-3.72,8.94ZM25.37,12.71l-3.69,8.96,12.66-12.66-8.96,3.69ZM30.62,17.99l-8.94,3.69h17.9l-8.96-3.69ZM30.62,25.37l-8.94-3.69,12.66,12.66-3.72-8.96ZM25.37,30.62l-3.69-8.94v17.93l3.69-8.99Z"/>
  </g>
</svg>