<?xml version="1.0" encoding="UTF-8"?>
<svg id="Capa_2" xmlns="http://www.w3.org/2000/svg" viewBox="0 0 43.36 43.36">
  <defs>
    <style>
      .cls-1 {
        fill: #1d1d1b;
      }
    </style>
  </defs>
  <g id="Capa_1-2" data-name="Capa_1">
    <path class="cls-1" d="M13.8,24.26l-4.86,14.97C2.98,34.52,0,28.68,0,21.71c0-2.03.36-4.27,1.08-6.71l12.71,9.26ZM16.82,14.97H1.08c1.58-4.59,4.23-8.23,7.94-10.93C12.73,1.35,16.95,0,21.68,0l-4.86,14.97ZM21.68,29.97l12.74,9.26c-4.02,2.75-8.27,4.13-12.74,4.13s-8.7-1.38-12.74-4.13l12.74-9.26ZM26.57,14.97L21.68,0c4.75,0,8.96,1.34,12.66,4.03,3.69,2.69,6.35,6.33,7.97,10.94h-15.73ZM29.56,24.26l12.74-9.26c.7,2.5,1.05,4.76,1.05,6.77,0,7.13-2.98,12.95-8.94,17.46l-4.86-14.97Z"/>
  </g>
</svg>