<?xml version="1.0" encoding="UTF-8"?>
<svg id="Capa_2" xmlns="http://www.w3.org/2000/svg" viewBox="0 0 25.17 47.72">
  <defs>
    <style>
      .cls-1 {
        fill: #1d1d1b;
      }
    </style>
  </defs>
  <g id="Capa_1-2" data-name="Capa_1">
    <path class="cls-1" d="M18.13,41.98v4.25c-2.52,1-4.79,1.49-6.8,1.49-2.54,0-4.83-.5-6.88-1.49v-3.28c-.68-.74-1.46-1.61-2.31-2.61-1.15-2.79-1.73-5.72-1.73-8.79v-1.41c-.27-.82-.41-1.48-.41-1.99,0-.9.19-1.57.57-2.01s.94-.66,1.68-.66c.27,0,.72.09,1.35.26-.23-.82-.35-1.45-.35-1.9,0-1.07.26-1.88.78-2.4.52-.53,1.28-.79,2.3-.79.9,0,1.75.54,2.55,1.61-.02-.49-.03-.89-.03-1.19,0-.26,0-.58.01-.98l-3.3-12.33c-.66-2.44-.99-4-.99-4.69,0-1.04.27-1.81.82-2.31.55-.51,1.35-.76,2.43-.76,1.68,0,2.92,1.71,3.74,5.13l3.25,13.33,3.32-10.11c1.27-3.87,2.7-5.8,4.29-5.8.76,0,1.41.26,1.95.79s.81,1.17.81,1.94c0,.8-.33,2.45-1,4.95l-2.93,11.17c.16,1.36.23,3.29.23,5.79l.03,1.26c.61,1.68.98,3.18,1.1,4.51-.96,2.79-2.45,5.8-4.47,9.02ZM5.45,30.53l-.76-1.76c-.55-1.29-1.19-1.93-1.93-1.93-.43,0-.76.11-.98.32-.22.22-.34.55-.34,1,0,.37.22,1.09.67,2.17l1.11,2.64c.59,1.39,1.24,2.08,1.96,2.08.41,0,.72-.13.92-.38.21-.25.31-.62.31-1.11,0-.62-.32-1.63-.97-3.02ZM16.82,41.4c1.43-2.03,2.72-4.55,3.9-7.56.1-.25.24-.62.44-1.08-.14-.49-.23-.85-.29-1.08-.84-3.25-2.36-6.27-4.57-9.06l-5.95-.79c0,2.72,1.73,4.17,5.19,4.34-.04.64-.06,1.17-.06,1.58,0,1.25.14,2.63.41,4.13h-1.44c-.27-1.19-.41-2.41-.41-3.66v-.62c-1.37-.27-2.51-.75-3.43-1.44l1.14,2.81c.37.96.56,1.73.56,2.31,0,1.07-.24,1.88-.73,2.42-.49.54-1.23.81-2.23.81-.51,0-1.1-.21-1.79-.64-.12.9-.39,1.57-.82,2.02-.43.45-1.01.67-1.73.67-.9,0-1.68-.55-2.34-1.64l-.64-1.05c.25,1.89.59,3.54,1,4.95.06.18.14.42.23.73l2.7,3.08v2.61c1.97.66,3.83,1,5.57,1s3.49-.33,5.3-1v-3.84ZM9.57,27.64l-1.21-2.98c-.69-1.71-1.39-2.57-2.12-2.57-.51,0-.9.15-1.16.45-.27.3-.4.75-.4,1.36,0,.8.24,1.75.71,2.86l1.15,2.78c.98,2.32,1.93,3.48,2.86,3.48.49,0,.86-.13,1.1-.39.25-.26.37-.65.37-1.16,0-.6-.43-1.88-1.29-3.83ZM13.58,19.34l-3.45-14.09c-.62-2.6-1.43-3.9-2.43-3.9-.57,0-.99.15-1.27.44-.28.29-.42.73-.42,1.32,0,.33.08.79.23,1.38.06.23.14.56.23.97.14.57.24.99.32,1.26l3.62,13.65,6.58.95c1.23,1.38,2.23,2.82,2.99,4.32v-4.62l2.86-11.26c.59-2.29.89-3.79.89-4.51,0-.43-.11-.75-.32-.95-.22-.21-.55-.31-1-.31-.55,0-.98.24-1.28.73-.3.49-.79,1.73-1.46,3.72l-3.79,11.13-2.3-.23Z"/>
  </g>
</svg>