<?xml version="1.0" encoding="UTF-8"?>
<svg xmlns="http://www.w3.org/2000/svg" version="1.1" viewBox="0 0 31.9 32">
  <defs>
    <style>
      .cls-1 {
        fill: #3e00ff;
      }

      .cls-2 {
        fill: #fff;
      }
    </style>
  </defs>
  <!-- Generator: Adobe Illustrator 28.7.4, SVG Export Plug-In . SVG Version: 1.2.0 Build 166)  -->
  <g>
    <g id="Capa_1">
      <g id="Capa_1-2" data-name="Capa_1">
        <g id="Capa_1-2">
          <g id="Capa_1-2-2" data-name="Capa_1-2">
            <g>
              <path class="cls-2" d="M9.2,25.6c-2.8,0-5-.8-6.7-2.3-1.6-1.6-2.5-3.8-2.5-6.7s.8-5.1,2.4-6.6c1.5-1.4,3.8-2.1,6.8-2.1h3.4c.5.2.9.2,1.3.3.4,0,.7.1.9.2l.7.2c.4.1.7.5.7,1v6.8c0,.2,0,.4-.1.5v6.8c0,.4-.3.8-.7.9-1.7.6-3.7.8-6.3.8h0v.2Z"/>
              <path class="cls-2" d="M23.3,25.8c-2.6,0-2.8,0-4.1-.3h-.6c-.8-.2-1.4-.3-1.8-.6l-.6-.3c-.3-.2-.6-.5-.6-.9v-5.4c0-.4.3-.8.7-.9-.6-.8-.9-1.9-.9-3.2,0-1.9.8-3.5,2.3-4.5s3.5-1.5,6.1-1.5h.2c1.2,0,2.4,0,3.6.2h.5c.8.2,1.4.3,1.9.5l.6.2c.4.1.7.5.7,1v6.3c0,.3-.2.6-.4.8.5.6.9,1.6.9,3s-.9,3.3-2.3,4.3c-1.6,1-3.6,1.4-6.2,1.4h0Z"/>
            </g>
          </g>
          <g id="Capa_1-3">
            <g>
              <path class="cls-1" d="M9.5,16.4v1.2h5.8v6.5c-1.5.5-3.4.8-6,.8s-4.6-.7-6-2c-1.4-1.4-2-3.3-2-5.9s.7-4.6,2-5.8c1.4-1.3,3.4-1.8,6.1-1.8s2.2,0,3.2.2,1.7.3,2.1.4l.7.2v6.8c-1.3-.2-3.2-.3-5.7-.3h0s-.2-.3-.2-.3Z"/>
              <path class="cls-1" d="M24,9.2c1.2,0,2.3,0,3.4.2s1.7.3,2.2.5l.7.2v6.3c-1.2-.6-2.8-.8-4.9-.8v.6c1.9.2,3.3.5,4.1,1.2.9.6,1.3,1.6,1.3,2.8s-.6,2.6-1.8,3.5c-1.3.8-3.1,1.3-5.6,1.3s-2.7,0-3.9-.3c-1.1-.2-1.8-.3-2.2-.5l-.6-.3v-5.4s.3,0,.6.2c.3,0,.9.2,1.7.4.9.2,1.9.2,2.9.2v-.5c-1.7,0-3.1-.5-4.1-1.2-.9-.6-1.4-1.7-1.4-3.3s.6-2.8,1.8-3.7c1.3-.9,3.1-1.4,5.5-1.4,0,0,.3,0,.3,0Z"/>
            </g>
          </g>
        </g>
      </g>
    </g>
  </g>
</svg>