<?xml version="1.0" encoding="UTF-8"?>
<svg id="Capa_2" xmlns="http://www.w3.org/2000/svg" viewBox="0 0 44.29 44.3">
  <defs>
    <style>
      .cls-1 {
        fill: #1d1d1b;
      }
    </style>
  </defs>
  <g id="Capa_1-2">
    <path class="cls-1" d="M22.18,5.51c1.07,4.91,3.43,8.93,7.04,11.98,2.68,2.29,5.85,3.84,9.47,4.63-3.62.79-6.8,2.35-9.49,4.64-3.64,3.12-6,7.12-7.05,11.92-.79-3.61-2.35-6.79-4.66-9.5-3.1-3.65-7.08-6.02-11.86-7.07,3.59-.79,6.77-2.34,9.47-4.63,3.67-3.12,6.04-7.13,7.09-11.99M23.58,1h-2.83c-.32,6.32-2.64,11.31-6.95,14.97-3.45,2.93-7.72,4.51-12.81,4.74h0v2.83c6.3.3,11.29,2.62,14.96,6.95,2.94,3.45,4.54,7.72,4.77,12.81h2.83c.32-6.33,2.64-11.33,6.94-15.02,3.42-2.92,7.69-4.5,12.79-4.75v-2.83c-5.11-.24-9.36-1.82-12.77-4.74-4.23-3.58-6.54-8.57-6.94-14.97h0Z"/>
  </g>
</svg>