<?xml version="1.0" encoding="UTF-8"?>
<svg id="Capa_2" xmlns="http://www.w3.org/2000/svg" viewBox="0 0 43.39 27.73">
  <path d="M6.02,19.49c0-.39.03-.98.08-1.78,1.28-.44,2.19-.91,2.72-1.4.53-.5,1.65-1.93,3.35-4.28l1.14-1.59L.03,2.17c-.02-.19-.03-.34-.03-.46C0,.89.46.32,1.37,0l13.54,8.49,1.37-1.56,11.28-1.57,4.88,5.43,2.68,7.99c-.89.36-1.7.55-2.43.59,1.1.29,1.84.83,2.23,1.61l4.2,2.58,4.28,4.17-5.57-2.02-3.19-1.97c-.59.86-1.58,1.39-2.96,1.59-.4.79-.87,1.39-1.39,1.8s-1.11.61-1.77.61-1.29-.25-1.95-.76c-.61.51-1.28.76-2.02.76-.89,0-1.71-.44-2.45-1.32-2.11.61-4.01,1.05-5.69,1.32-1.74-.49-3.12-1-4.15-1.52l-3.97,1.52c-1.5-2.28-2.25-5.03-2.25-8.24ZM12.25,24.87c.57.22,1.55.55,2.93.99.25.08.64.21,1.16.38,2.09-.27,5.79-1.09,11.11-2.45,1.23.29,2.23.43,3.01.43,2.18,0,3.26-.62,3.26-1.85s-1.21-1.8-3.62-1.8c-.67,0-1.48.09-2.4.28-2.48-.94-5.02-1.58-7.62-1.94l.03-2.15-.05-2.08-5.64-3.56-1.34,1.75c-.13.19-.4.58-.81,1.19-1.55,2.31-3.2,3.82-4.93,4.52v.86c0,2.23.5,4.46,1.49,6.67l3.42-1.24ZM21.43,12.53c1.37-.71,2.59-1.41,3.67-2.1,1.01.97,2.04,1.84,3.09,2.6l.83.61c.96,2.94,2.18,4.42,3.67,4.42.19,0,.43-.03.73-.08l-2.13-6.57-4.23-4.67-10.22,1.34-.86,1.04,5.44,3.41ZM21.35,16.07v1.72c1.47.26,3.63.83,6.48,1.73l-6.5-4.11.03.66ZM29.42,17.48c-.66-.92-1.15-1.92-1.47-2.98-1.28-.75-2.32-1.56-3.11-2.4-.44.3-.96.6-1.57.89-.15.07-.37.18-.66.33l6.81,4.17ZM24.64,26.44c.73,0,1.15-.34,1.27-1.01l-2.4.63c.32.25.7.38,1.14.38ZM28.56,26.41c.27,0,.54-.08.82-.25s.56-.42.85-.76c-.61,0-1.54-.13-2.81-.38l-.63.18c.44.81,1.03,1.21,1.77,1.21Z"/>
</svg>