<?xml version="1.0" encoding="UTF-8"?>
<svg id="Capa_2" xmlns="http://www.w3.org/2000/svg" viewBox="0 0 43.33 41.57">
  <defs>
    <style>
      .cls-1 {
        fill: #1d1d1b;
      }
    </style>
  </defs>
  <g id="Capa_1-2" data-name="Capa_1">
    <path class="cls-1" d="M21.56,38.29c-.55,1.07-1.24,1.89-2.08,2.43-.84.55-1.82.82-2.93.82-1.91,0-3.54-1.04-4.86-3.11l-.47-.73c-.64-1-1.54-1.62-2.7-1.88l-.85-.18c-1.35-.29-2.45-.96-3.31-1.99-.86-1.04-1.29-2.22-1.29-3.54,0-1.25.66-2.6,1.99-4.04-1.68-.35-2.94-.99-3.79-1.92-.85-.93-1.27-2.15-1.27-3.68,0-1.11.43-2.21,1.29-3.28l.7-.85c.92-1.13,1.38-2,1.38-2.61,0-.21-.02-.52-.06-.91l-.06-1.08c-.02-.25-.03-.5-.03-.73,0-1.35.56-2.58,1.67-3.69,1.09-1.11,2.3-1.67,3.63-1.67.9,0,1.94.3,3.13.91-.15-.62-.23-1.08-.23-1.38,0-1.35.55-2.55,1.64-3.6s2.34-1.58,3.74-1.58c.66,0,1.38.15,2.17.44l1,.35c.92.37,1.53.56,1.84.56.45,0,1.04-.16,1.78-.47l.82-.38c.76-.33,1.51-.5,2.25-.5,1.42,0,2.7.53,3.82,1.58s1.68,2.26,1.68,3.6c0,.39-.05.94-.15,1.64.43-.29.89-.51,1.38-.64.49-.14,1.01-.21,1.55-.21,1.54,0,2.83.59,3.87,1.76,1.04,1.17,1.5,2.57,1.41,4.19l-.06,1.23c-.04.57-.06.91-.06,1.03,0,.64.38,1.41,1.14,2.29l.53.59c1.04,1.17,1.55,2.37,1.55,3.6,0,1.45-.41,2.65-1.22,3.6-.81.96-2.04,1.66-3.68,2.11,1.11,1.35,1.67,2.67,1.67,3.96,0,2.79-1.44,4.57-4.33,5.33l-.88.23c-1.44.37-2.44,1.05-2.98,2.05l-.5.88c-1.03,1.84-2.63,2.75-4.8,2.75-.98,0-1.88-.27-2.72-.82-.84-.55-1.62-1.37-2.34-2.46ZM22.32,29.88c-.1.84-.15,1.59-.15,2.23,0,2.66.37,4.67,1.11,6.01s1.84,2.01,3.31,2.01,2.69-.77,3.69-2.32l.58-.88c.82-1.27,2.02-2.09,3.6-2.47l.94-.21c2.18-.51,3.28-1.84,3.28-3.99,0-1.17-.79-2.52-2.37-4.05-2.52-.31-4.61-.93-6.27-1.85l.44-1.35c2.84,1.23,5.21,1.85,7.11,1.85,1.45,0,2.53-.34,3.25-1.02.71-.68,1.07-1.71,1.07-3.07,0-.88-.38-1.76-1.15-2.66l-.71-.82c-.95-1.11-1.42-2.27-1.42-3.48,0-.21,0-.44.03-.67l.06-.99c.02-.21.03-.45.03-.7,0-1.13-.36-2.09-1.08-2.87-.74-.78-1.64-1.17-2.7-1.17-.57,0-1.16.11-1.77.33-.62.22-1.26.56-1.92,1.01-1.09,2.08-2.28,3.81-3.56,5.19l-1.17-.88c2.74-3.19,4.11-5.82,4.11-7.87,0-1.02-.39-1.9-1.17-2.64-.78-.74-1.72-1.12-2.81-1.12-.45,0-1.02.14-1.7.41l-.97.38c-.9.37-1.63.56-2.2.56-.47,0-1.23-.21-2.29-.62l-.91-.34c-.72-.26-1.35-.39-1.88-.39-1.13,0-2.06.39-2.78,1.17-.72.78-1.08,1.78-1.08,2.99,0,.55.07,1.27.21,2.17,1.41,1.38,2.74,3.1,3.97,5.16l-1.18.82c-2.69-4.43-5.09-6.65-7.2-6.65-1.19,0-2.17.44-2.93,1.32-.78.9-1.14,1.99-1.08,3.28l.06,1.05c.02.25.03.52.03.79,0,1.11-.52,2.3-1.57,3.54l-.67.82c-.72.86-1.07,1.76-1.07,2.7,0,1.05.43,1.96,1.28,2.71.85.75,2.13,1.34,3.82,1.77,1.65-.94,3.72-1.71,6.21-2.31l.44,1.38c-3.44,1-5.74,1.9-6.92,2.72s-1.76,1.93-1.76,3.34c0,2.17,1.1,3.5,3.29,3.98l.97.23c1.62.37,2.86,1.22,3.7,2.55l.56.88c.92,1.46,2.13,2.2,3.64,2.2.82,0,1.6-.29,2.33-.86.73-.58,1.42-1.44,2.07-2.59-.29-1.37-.44-2.87-.44-4.51,0-.68.07-1.42.21-2.2h1.49ZM21.71,25.52l-.64,1.55-1.32-.29.06-1.64-1.97,2.26-1.12-.85,1.47-2.61-1.59.56-.68-1.26,1.27-1.05-1.62-.06-.15-1.35,1.59-.44-2.8-1.17.47-1.35,2.91.67-.97-1.41.97-1,1.32.91-.41-1.55,1.32-.62.82,1.38.26-2.96h1.44l.26,2.96,1-1.38,1.31.62-.44,1.58,1.31-.91.93,1-1.02,1.29,2.95-.7.38,1.35-2.68,1.2,1.58.47-.17,1.44-1.58.06,1.25,1-.67,1.26-1.55-.59,1.63,2.52-1.2.88-1.95-2.2-.03,1.7-1.35.26-.62-1.52ZM21.71,25.11c1.21,0,2.24-.42,3.08-1.26s1.26-1.86,1.26-3.08-.42-2.24-1.26-3.08c-.84-.84-1.87-1.26-3.08-1.26s-2.24.42-3.08,1.26-1.26,1.87-1.26,3.08.41,2.24,1.25,3.08c.83.84,1.86,1.26,3.09,1.26ZM21.65,22.59c-1.17,0-1.76-.6-1.76-1.82s.59-1.79,1.76-1.79,1.76.6,1.76,1.79-.59,1.82-1.76,1.82Z"/>
  </g>
</svg>