<?xml version="1.0" encoding="UTF-8"?>
<svg xmlns="http://www.w3.org/2000/svg" version="1.1" viewBox="0 0 31.9 32">
  <defs>
    <style>
      .cls-1 {
        fill: #433434;
      }
    </style>
  </defs>
  <!-- Generator: Adobe Illustrator 28.7.1, SVG Export Plug-In . SVG Version: 1.2.0 Build 142)  -->
  <g>
    <g id="Capa_1">
      <g>
        <path class="cls-1" d="M9.3,15.4v1.2c.3,0,.8,0,1.6,0,1.4,0,2.7,0,3.8-.1h.5s0,6.7,0,6.7c-1.5.5-3.5.8-6.2.8s-4.7-.7-6.2-2.1c-1.4-1.4-2.1-3.4-2.1-6.1s.7-4.7,2.1-6c1.4-1.3,3.5-1.9,6.3-1.9s2.3,0,3.3.2,1.8.3,2.2.4l.7.2v7c-1.3-.2-3.3-.3-5.9-.3Z"/>
        <path class="cls-1" d="M24.2,8c1.2,0,2.4,0,3.5.2,1.1.2,1.8.3,2.3.5l.7.2v6.5c-1.2-.6-2.9-.8-5-.8v.6c2,.2,3.4.5,4.2,1.2.9.6,1.3,1.6,1.3,2.9s-.6,2.7-1.9,3.6c-1.3.8-3.2,1.3-5.8,1.3s-2.8,0-4-.3c-1.1-.2-1.9-.3-2.3-.5l-.6-.3v-5.6c.1,0,.3.1.6.2.3.1.9.2,1.8.4.9.2,2,.2,3,.2v-.5c-1.8-.1-3.2-.5-4.2-1.2-.9-.6-1.4-1.8-1.4-3.4s.6-2.9,1.9-3.8c1.3-.9,3.2-1.4,5.7-1.4Z"/>
      </g>
    </g>
  </g>
</svg>